<svg width="64" height="64" viewBox="0 0 64 64" fill="none" xmlns="http://www.w3.org/2000/svg">
<g clip-path="url(#clip0_792_70)">
<path d="M63.8352 38.0414C63.6332 37.7159 63.279 37.5172 62.8961 37.5172H18.7582C18.3753 37.5172 18.0211 37.7159 17.8192 38.0414C17.6183 38.3669 17.5996 38.773 17.7706 39.115L19.9775 43.5288C20.1651 43.9018 20.5469 44.1379 20.9651 44.1379H36.4134V59.5862H28.6892C28.0801 59.5862 27.5858 60.0794 27.5858 60.6897V62.8966C27.5858 63.5068 28.0801 64 28.6892 64C29.2983 64 29.7927 63.5068 29.7927 62.8966V61.7931H51.8616V62.8966C51.8616 63.5068 52.356 64 52.9651 64C53.5742 64 54.0685 63.5068 54.0685 62.8966V60.6897C54.0685 60.0794 53.5742 59.5862 52.9651 59.5862H45.241V44.1379H60.6892C61.1074 44.1379 61.4892 43.9018 61.6768 43.5277L63.8837 39.1139C64.0536 38.773 64.036 38.3669 63.8352 38.0414ZM43.0341 59.5862H38.6203V44.1379H43.0341V59.5862ZM60.0073 41.931H21.647L20.5436 39.7241H61.1107L60.0073 41.931Z" fill="black"/>
<path d="M12.1379 61.7931H11.0345V26.9903C11.5509 26.5258 11.9945 25.984 12.3454 25.3793H22.069C23.8941 25.3793 25.3793 23.894 25.3793 22.0689C25.3793 20.2438 23.8941 18.7586 22.069 18.7586H20.9655V12.9346C21.6221 12.5517 22.069 11.8477 22.069 11.0345C22.069 10.838 22.0348 10.6516 21.9862 10.4706L24.3697 8.08714L29.6033 13.3208C29.8119 13.5293 30.0932 13.6441 30.3835 13.6441C30.4364 13.6441 30.4916 13.6397 30.5446 13.632L32.715 13.3109L42.2532 22.8491C42.4695 23.0642 42.752 23.1724 43.0345 23.1724C43.317 23.1724 43.5995 23.0642 43.8146 22.8491C44.2461 22.4176 44.2461 21.7202 43.8146 21.2888L34.2764 11.7506L34.5964 9.58011C34.6472 9.23473 34.5313 8.88494 34.2852 8.63776L25.9708 0.323281C25.5393 -0.108167 24.8419 -0.108167 24.4105 0.323281L23.6292 1.10342L22.8491 0.323281C22.4177 -0.108167 21.7203 -0.108167 21.2888 0.323281C20.8574 0.754729 20.8574 1.45211 21.2888 1.88356L22.069 2.66369L21.2888 3.44383C21.0825 3.65128 20.9655 3.93045 20.9655 4.22397C20.9655 4.51749 21.0814 4.79776 21.2888 5.00411L22.8105 6.52576L20.427 8.90921C20.245 8.86176 20.0585 8.82756 19.8621 8.82756C18.645 8.82756 17.6552 9.81735 17.6552 11.0345C17.6552 11.8477 18.1021 12.5517 18.7586 12.9346V18.7586H12.3454C11.1989 16.7834 9.06483 15.4482 6.62069 15.4482C2.96938 15.4482 0 18.4176 0 22.0689C0 24.0231 0.856276 25.7765 2.2069 26.9903V32C0.989793 32 0 32.9898 0 34.2069V40.8276C0 42.0447 0.989793 43.0345 2.2069 43.0345V61.7931H1.10345C0.494345 61.7931 0 62.2863 0 62.8965C0 63.5067 0.494345 64 1.10345 64H12.1379C12.747 64 13.2414 63.5067 13.2414 62.8965C13.2414 62.2863 12.747 61.7931 12.1379 61.7931ZM25.1906 2.66369L32.3332 9.80632L32.1324 11.1658L30.773 11.3677L23.6303 4.22397L25.1906 2.66369ZM22.069 20.9655C22.677 20.9655 23.1724 21.4598 23.1724 22.0689C23.1724 22.678 22.677 23.1724 22.069 23.1724H13.1421C13.2028 22.8127 13.2414 22.4452 13.2414 22.0689C13.2414 21.6927 13.2028 21.3252 13.1421 20.9655H22.069ZM6.62069 17.6551C9.0549 17.6551 11.0345 19.6347 11.0345 22.0689C11.0345 24.5031 9.0549 26.4827 6.62069 26.4827C4.18648 26.4827 2.2069 24.5031 2.2069 22.0689C2.2069 19.6347 4.18648 17.6551 6.62069 17.6551ZM2.2069 34.2069H4.41379V40.8276H2.2069V34.2069ZM4.41379 43.0345C5.6309 43.0345 6.62069 42.0447 6.62069 40.8276V34.2069C6.62069 32.9898 5.6309 32 4.41379 32V28.3034C5.10566 28.5484 5.84607 28.6896 6.62069 28.6896C7.39531 28.6896 8.13573 28.5484 8.82759 28.3034V61.7931H4.41379V43.0345Z" fill="black"/>
<path d="M6.62096 24.2759C7.83979 24.2759 8.82786 23.2878 8.82786 22.069C8.82786 20.8501 7.83979 19.8621 6.62096 19.8621C5.40212 19.8621 4.41406 20.8501 4.41406 22.069C4.41406 23.2878 5.40212 24.2759 6.62096 24.2759Z" fill="black"/>
</g>
<defs>
<clipPath id="clip0_792_70">
<rect width="64" height="64" fill="white"/>
</clipPath>
</defs>
</svg>
